grf
version=1
nRows=14
nColumns=37
inDegrees=no
endheader
time	ground_force_1_vx	ground_force_1_vy	ground_force_1_vz	ground_force_1_px	ground_force_1_py	ground_force_1_pz	ground_moment_1_mx	ground_moment_1_my	ground_moment_1_mz	ground_force_2_vx	ground_force_2_vy	ground_force_2_vz	ground_force_2_px	ground_force_2_py	ground_force_2_pz	ground_moment_2_mx	ground_moment_2_my	ground_moment_2_mz	ground_force_3_vx	ground_force_3_vy	ground_force_3_vz	ground_force_3_px	ground_force_3_py	ground_force_3_pz	ground_moment_3_mx	ground_moment_3_my	ground_moment_3_mz	ground_force_4_vx	ground_force_4_vy	ground_force_4_vz	ground_force_4_px	ground_force_4_py	ground_force_4_pz	ground_moment_4_mx	ground_moment_4_my	ground_moment_4_mz
      0.00000000	      0.00000000	     -0.00000000	      0.00000000	      0.00000000	      0.00000000	      0.00000000	      0.00000000	      0.00000000	      0.00000000	    -15.26134682	     50.65778732	   -267.30697632	   -239.53106358	  -1115.96271690	      0.00000000	      0.00000000	     -0.00000000	  -6248.01431795	    -17.77522014	    -57.13754880	   -425.64187622	   -284.29839133	   -726.45743178	      0.00000000	      0.00000000	     -0.00000000	  -1835.14845957	      0.00000000	     -0.00000000	      0.00000000	      0.00000000	      0.00000000	      0.00000000	      0.00000000	      0.00000000	      0.00000000
      0.01000000	      0.00000000	     -0.00000000	      0.00000000	      0.00000000	      0.00000000	      0.00000000	      0.00000000	      0.00000000	      0.00000000	    -15.61183929	     49.18753815	   -270.33059692	   -241.81400744	  -1117.69905837	      0.00000000	      0.00000000	     -0.00000000	  -5823.14716062	    -17.55824963	    -56.31046142	   -425.36883545	   -283.84981338	   -727.30291078	      0.00000000	      0.00000000	      0.00000000	  -1719.40989535	      0.00000000	     -0.00000000	      0.00000000	      0.00000000	      0.00000000	      0.00000000	      0.00000000	      0.00000000	      0.00000000
      0.02000000	      0.00000000	     -0.00000000	      0.00000000	      0.00000000	      0.00000000	      0.00000000	      0.00000000	      0.00000000	      0.00000000	    -16.33771515	     47.01435471	   -274.14001465	   -243.01036400	  -1114.69589737	      0.00000000	      0.00000000	     -0.00000000	  -5242.24788157	    -16.69035067	    -56.06527946	   -427.83587646	   -283.67364060	   -728.42061708	      0.00000000	      0.00000000	      0.00000000	  -2023.90835463	      0.00000000	     -0.00000000	      0.00000000	      0.00000000	      0.00000000	      0.00000000	      0.00000000	      0.00000000	      0.00000000
      0.03000000	      0.00000000	     -0.00000000	      0.00000000	      0.00000000	      0.00000000	      0.00000000	      0.00000000	      0.00000000	      0.00000000	    -17.21762848	     45.02281189	   -283.90927124	   -246.34057171	  -1112.76747741	      0.00000000	      0.00000000	     -0.00000000	  -4774.83486259	    -16.24657361	    -56.39277888	   -433.34637451	   -284.14676791	   -727.74886007	      0.00000000	      0.00000000	     -0.00000000	  -2033.32371616	      0.00000000	     -0.00000000	      0.00000000	      0.00000000	      0.00000000	      0.00000000	      0.00000000	      0.00000000	      0.00000000
      0.04000000	      0.00000000	     -0.00000000	      0.00000000	      0.00000000	      0.00000000	      0.00000000	      0.00000000	      0.00000000	      0.00000000	    -18.10973358	     42.77087784	   -294.66809082	   -250.01926575	  -1112.30697235	      0.00000000	      0.00000000	     -0.00000000	  -4052.45635331	    -14.87891134	    -58.17349495	   -440.95440674	   -284.45268455	   -727.76020528	      0.00000000	     -0.00000000	     -0.00000000	  -2065.56082881	      0.00000000	     -0.00000000	      0.00000000	      0.00000000	      0.00000000	      0.00000000	      0.00000000	      0.00000000	      0.00000000
      0.05000000	      0.00000000	     -0.00000000	      0.00000000	      0.00000000	      0.00000000	      0.00000000	      0.00000000	      0.00000000	      0.00000000	    -16.72818756	     41.17824554	   -312.56427002	   -255.75370612	  -1112.31053984	      0.00000000	      0.00000000	     -0.00000000	  -3001.03726127	    -13.94557806	    -59.61117432	   -447.23965454	   -284.68247649	   -726.76194050	      0.00000000	     -0.00000000	     -0.00000000	  -2043.41979455	      0.00000000	     -0.00000000	      0.00000000	      0.00000000	      0.00000000	      0.00000000	      0.00000000	      0.00000000	      0.00000000
      0.06000000	      0.00000000	     -0.00000000	      0.00000000	      0.00000000	      0.00000000	      0.00000000	      0.00000000	      0.00000000	      0.00000000	    -14.08965302	     40.02515793	   -334.24139404	   -265.13199656	  -1108.25751692	      0.00000000	      0.00000000	     -0.00000000	  -2305.13873624	    -13.38358645	    -60.47111776	   -450.03332520	   -283.48295536	   -727.66660871	      0.00000000	      0.00000000	     -0.00000000	  -1958.57205683	      0.00000000	     -0.00000000	      0.00000000	      0.00000000	      0.00000000	      0.00000000	      0.00000000	      0.00000000	      0.00000000
      0.07000000	      0.00000000	     -0.00000000	      0.00000000	      0.00000000	      0.00000000	      0.00000000	      0.00000000	      0.00000000	      0.00000000	     -9.67998219	     39.08853149	   -361.78677368	   -273.61110462	  -1107.26706674	      0.00000000	      0.00000000	     -0.00000000	  -1605.71264835	    -12.63150937	    -60.73089871	   -451.43038940	   -283.24420856	   -729.13273811	      0.00000000	      0.00000000	     -0.00000000	  -2038.62679782	      0.00000000	     -0.00000000	      0.00000000	      0.00000000	      0.00000000	      0.00000000	      0.00000000	      0.00000000	      0.00000000
      0.08000000	      0.00000000	     -0.00000000	      0.00000000	      0.00000000	      0.00000000	      0.00000000	      0.00000000	      0.00000000	      0.00000000	     -3.73609447	     39.28503799	   -387.81283569	   -284.42947938	  -1104.28856972	      0.00000000	      0.00000000	     -0.00000000	   -789.94181887	    -12.07031292	    -59.35217180	   -449.77389526	   -280.92411588	   -729.63911884	      0.00000000	      0.00000000	     -0.00000000	  -2220.20560103	      0.00000000	     -0.00000000	      0.00000000	      0.00000000	      0.00000000	      0.00000000	      0.00000000	      0.00000000	      0.00000000
      0.09000000	      0.00000000	     -0.00000000	      0.00000000	      0.00000000	      0.00000000	      0.00000000	      0.00000000	      0.00000000	      0.00000000	      0.67686874	     39.30651093	   -405.96972656	   -293.57950196	  -1101.21032299	      0.00000000	      0.00000000	      0.00000000	      1.81473911	    -12.70217065	    -57.66857799	   -446.15072632	   -278.76338694	   -728.64467529	      0.00000000	      0.00000000	     -0.00000000	  -2642.26625837	      0.00000000	     -0.00000000	      0.00000000	      0.00000000	      0.00000000	      0.00000000	      0.00000000	      0.00000000	      0.00000000
      0.10000000	      0.00000000	     -0.00000000	      0.00000000	      0.00000000	      0.00000000	      0.00000000	      0.00000000	      0.00000000	      0.00000000	      4.76398849	     40.29205704	   -418.22583008	   -301.95489705	  -1100.34241497	      0.00000000	      0.00000000	      0.00000000	    303.51160371	    -13.74478922	    -55.70416521	   -436.74627686	   -274.78260674	   -729.21381629	      0.00000000	      0.00000000	     -0.00000000	  -2815.02620339	      0.00000000	     -0.00000000	      0.00000000	      0.00000000	      0.00000000	      0.00000000	      0.00000000	      0.00000000	      0.00000000
      0.11000000	      0.00000000	     -0.00000000	      0.00000000	      0.00000000	      0.00000000	      0.00000000	      0.00000000	      0.00000000	      0.00000000	      8.73762321	     42.60933304	   -426.64135742	   -310.28355793	  -1100.66979433	      0.00000000	      0.00000000	      0.00000000	    810.73792325	    -15.35752373	    -52.38001498	   -424.17770386	   -268.97129246	   -729.71835656	      0.00000000	      0.00000000	     -0.00000000	  -2951.86715317	      0.00000000	     -0.00000000	      0.00000000	      0.00000000	      0.00000000	      0.00000000	      0.00000000	      0.00000000	      0.00000000
      0.12000000	      0.00000000	     -0.00000000	      0.00000000	      0.00000000	      0.00000000	      0.00000000	      0.00000000	      0.00000000	      0.00000000	     11.58759594	     44.47607422	   -432.76147461	   -316.60899779	  -1097.76460390	      0.00000000	      0.00000000	     -0.00000000	   1134.64324718	    -17.39247361	    -48.11992112	   -409.51428223	   -264.17492565	   -730.43829151	      0.00000000	     -0.00000000	     -0.00000000	  -3454.79462397	      0.00000000	     -0.00000000	      0.00000000	      0.00000000	      0.00000000	      0.00000000	      0.00000000	      0.00000000	      0.00000000
      0.13000000	      0.00000000	     -0.00000000	      0.00000000	      0.00000000	      0.00000000	      0.00000000	      0.00000000	      0.00000000	      0.00000000	     12.96403122	     46.08042145	   -440.49063110	   -324.21315953	  -1097.68743301	      0.00000000	      0.00000000	      0.00000000	   1340.48977867	    -20.30472938	    -42.75269522	   -392.13681030	   -258.28713329	   -731.61156092	      0.00000000	     -0.00000000	      0.00000000	  -3638.41872115	      0.00000000	     -0.00000000	      0.00000000	      0.00000000	      0.00000000	      0.00000000	      0.00000000	      0.00000000	      0.00000000
